<?xml version="1.0" encoding="UTF-8" standalone="no"?>
<!DOCTYPE svg PUBLIC "-//W3C//DTD SVG 1.1//EN"
 "http://www.w3.org/Graphics/SVG/1.1/DTD/svg11.dtd">
<!-- Generated by graphviz version 2.43.0 (0)
 -->
<!-- Title: %3 Pages: 1 -->
<svg width="894pt" height="548pt"
 viewBox="0.00 0.00 894.27 548.00" xmlns="http://www.w3.org/2000/svg" xmlns:xlink="http://www.w3.org/1999/xlink">
<g id="graph0" class="graph" transform="scale(1 1) rotate(0) translate(4 544)">
<title>%3</title>
<polygon fill="white" stroke="transparent" points="-4,4 -4,-544 890.27,-544 890.27,4 -4,4"/>
<!-- [root] aws_internet_gateway.non_prod_igw (expand) -->
<g id="node1" class="node">
<title>[root] aws_internet_gateway.non_prod_igw (expand)</title>
<polygon fill="none" stroke="black" points="219,-252 0,-252 0,-216 219,-216 219,-252"/>
<text text-anchor="middle" x="109.5" y="-230.3" font-family="Times,serif" font-size="14.00">aws_internet_gateway.non_prod_igw</text>
</g>
<!-- [root] aws_vpc.non_prod (expand) -->
<g id="node9" class="node">
<title>[root] aws_vpc.non_prod (expand)</title>
<polygon fill="none" stroke="black" points="409,-180 290,-180 290,-144 409,-144 409,-180"/>
<text text-anchor="middle" x="349.5" y="-158.3" font-family="Times,serif" font-size="14.00">aws_vpc.non_prod</text>
</g>
<!-- [root] aws_internet_gateway.non_prod_igw (expand)&#45;&gt;[root] aws_vpc.non_prod (expand) -->
<g id="edge1" class="edge">
<title>[root] aws_internet_gateway.non_prod_igw (expand)&#45;&gt;[root] aws_vpc.non_prod (expand)</title>
<path fill="none" stroke="black" d="M167.9,-215.97C202.02,-206.01 245.25,-193.41 280.97,-182.99"/>
<polygon fill="black" stroke="black" points="282.21,-186.27 290.83,-180.11 280.25,-179.55 282.21,-186.27"/>
</g>
<!-- [root] aws_route.public_route (expand) -->
<g id="node2" class="node">
<title>[root] aws_route.public_route (expand)</title>
<polygon fill="none" stroke="black" points="272.5,-324 128.5,-324 128.5,-288 272.5,-288 272.5,-324"/>
<text text-anchor="middle" x="200.5" y="-302.3" font-family="Times,serif" font-size="14.00">aws_route.public_route</text>
</g>
<!-- [root] aws_route.public_route (expand)&#45;&gt;[root] aws_internet_gateway.non_prod_igw (expand) -->
<g id="edge2" class="edge">
<title>[root] aws_route.public_route (expand)&#45;&gt;[root] aws_internet_gateway.non_prod_igw (expand)</title>
<path fill="none" stroke="black" d="M178.01,-287.7C166.54,-278.88 152.44,-268.03 140.02,-258.47"/>
<polygon fill="black" stroke="black" points="141.8,-255.43 131.74,-252.1 137.53,-260.98 141.8,-255.43"/>
</g>
<!-- [root] aws_route_table.public_route_table (expand) -->
<g id="node4" class="node">
<title>[root] aws_route_table.public_route_table (expand)</title>
<polygon fill="none" stroke="black" points="447.5,-252 237.5,-252 237.5,-216 447.5,-216 447.5,-252"/>
<text text-anchor="middle" x="342.5" y="-230.3" font-family="Times,serif" font-size="14.00">aws_route_table.public_route_table</text>
</g>
<!-- [root] aws_route.public_route (expand)&#45;&gt;[root] aws_route_table.public_route_table (expand) -->
<g id="edge3" class="edge">
<title>[root] aws_route.public_route (expand)&#45;&gt;[root] aws_route_table.public_route_table (expand)</title>
<path fill="none" stroke="black" d="M235.24,-287.88C254.32,-278.47 278.18,-266.71 298.55,-256.67"/>
<polygon fill="black" stroke="black" points="300.21,-259.75 307.63,-252.19 297.11,-253.47 300.21,-259.75"/>
</g>
<!-- [root] aws_route_table.private_route_tables (expand) -->
<g id="node3" class="node">
<title>[root] aws_route_table.private_route_tables (expand)</title>
<polygon fill="none" stroke="black" points="841,-324 622,-324 622,-288 841,-288 841,-324"/>
<text text-anchor="middle" x="731.5" y="-302.3" font-family="Times,serif" font-size="14.00">aws_route_table.private_route_tables</text>
</g>
<!-- [root] aws_subnet.private_subnets (expand) -->
<g id="node7" class="node">
<title>[root] aws_subnet.private_subnets (expand)</title>
<polygon fill="none" stroke="black" points="815.5,-252 647.5,-252 647.5,-216 815.5,-216 815.5,-252"/>
<text text-anchor="middle" x="731.5" y="-230.3" font-family="Times,serif" font-size="14.00">aws_subnet.private_subnets</text>
</g>
<!-- [root] aws_route_table.private_route_tables (expand)&#45;&gt;[root] aws_subnet.private_subnets (expand) -->
<g id="edge4" class="edge">
<title>[root] aws_route_table.private_route_tables (expand)&#45;&gt;[root] aws_subnet.private_subnets (expand)</title>
<path fill="none" stroke="black" d="M731.5,-287.7C731.5,-279.98 731.5,-270.71 731.5,-262.11"/>
<polygon fill="black" stroke="black" points="735,-262.1 731.5,-252.1 728,-262.1 735,-262.1"/>
</g>
<!-- [root] aws_route_table.public_route_table (expand)&#45;&gt;[root] aws_vpc.non_prod (expand) -->
<g id="edge5" class="edge">
<title>[root] aws_route_table.public_route_table (expand)&#45;&gt;[root] aws_vpc.non_prod (expand)</title>
<path fill="none" stroke="black" d="M344.23,-215.7C345,-207.98 345.93,-198.71 346.79,-190.11"/>
<polygon fill="black" stroke="black" points="350.28,-190.4 347.79,-180.1 343.31,-189.71 350.28,-190.4"/>
</g>
<!-- [root] aws_route_table_association.route_table_assoc_private_subnets (expand) -->
<g id="node5" class="node">
<title>[root] aws_route_table_association.route_table_assoc_private_subnets (expand)</title>
<polygon fill="none" stroke="black" points="876.5,-396 512.5,-396 512.5,-360 876.5,-360 876.5,-396"/>
<text text-anchor="middle" x="694.5" y="-374.3" font-family="Times,serif" font-size="14.00">aws_route_table_association.route_table_assoc_private_subnets</text>
</g>
<!-- [root] aws_route_table_association.route_table_assoc_private_subnets (expand)&#45;&gt;[root] aws_route_table.private_route_tables (expand) -->
<g id="edge6" class="edge">
<title>[root] aws_route_table_association.route_table_assoc_private_subnets (expand)&#45;&gt;[root] aws_route_table.private_route_tables (expand)</title>
<path fill="none" stroke="black" d="M703.65,-359.7C707.9,-351.64 713.06,-341.89 717.77,-332.98"/>
<polygon fill="black" stroke="black" points="720.88,-334.58 722.46,-324.1 714.69,-331.31 720.88,-334.58"/>
</g>
<!-- [root] aws_route_table_association.route_table_assoc_public (expand) -->
<g id="node6" class="node">
<title>[root] aws_route_table_association.route_table_assoc_public (expand)</title>
<polygon fill="none" stroke="black" points="604,-324 291,-324 291,-288 604,-288 604,-324"/>
<text text-anchor="middle" x="447.5" y="-302.3" font-family="Times,serif" font-size="14.00">aws_route_table_association.route_table_assoc_public</text>
</g>
<!-- [root] aws_route_table_association.route_table_assoc_public (expand)&#45;&gt;[root] aws_route_table.public_route_table (expand) -->
<g id="edge7" class="edge">
<title>[root] aws_route_table_association.route_table_assoc_public (expand)&#45;&gt;[root] aws_route_table.public_route_table (expand)</title>
<path fill="none" stroke="black" d="M421.81,-287.88C408.21,-278.81 391.33,-267.55 376.64,-257.76"/>
<polygon fill="black" stroke="black" points="378.55,-254.82 368.28,-252.19 374.66,-260.65 378.55,-254.82"/>
</g>
<!-- [root] aws_subnet.public_subnets (expand) -->
<g id="node8" class="node">
<title>[root] aws_subnet.public_subnets (expand)</title>
<polygon fill="none" stroke="black" points="629.5,-252 465.5,-252 465.5,-216 629.5,-216 629.5,-252"/>
<text text-anchor="middle" x="547.5" y="-230.3" font-family="Times,serif" font-size="14.00">aws_subnet.public_subnets</text>
</g>
<!-- [root] aws_route_table_association.route_table_assoc_public (expand)&#45;&gt;[root] aws_subnet.public_subnets (expand) -->
<g id="edge8" class="edge">
<title>[root] aws_route_table_association.route_table_assoc_public (expand)&#45;&gt;[root] aws_subnet.public_subnets (expand)</title>
<path fill="none" stroke="black" d="M471.96,-287.88C484.8,-278.89 500.7,-267.76 514.59,-258.03"/>
<polygon fill="black" stroke="black" points="516.76,-260.79 522.94,-252.19 512.74,-255.06 516.76,-260.79"/>
</g>
<!-- [root] aws_subnet.private_subnets (expand)&#45;&gt;[root] aws_vpc.non_prod (expand) -->
<g id="edge9" class="edge">
<title>[root] aws_subnet.private_subnets (expand)&#45;&gt;[root] aws_vpc.non_prod (expand)</title>
<path fill="none" stroke="black" d="M647.2,-217.55C578.79,-205.02 483.5,-187.55 419.31,-175.79"/>
<polygon fill="black" stroke="black" points="419.75,-172.32 409.29,-173.96 418.49,-179.2 419.75,-172.32"/>
</g>
<!-- [root] data.aws_availability_zones.singapore (expand) -->
<g id="node10" class="node">
<title>[root] data.aws_availability_zones.singapore (expand)</title>
<polygon fill="none" stroke="black" points="746,-180 521,-180 521,-144 746,-144 746,-180"/>
<text text-anchor="middle" x="633.5" y="-158.3" font-family="Times,serif" font-size="14.00">data.aws_availability_zones.singapore</text>
</g>
<!-- [root] aws_subnet.private_subnets (expand)&#45;&gt;[root] data.aws_availability_zones.singapore (expand) -->
<g id="edge10" class="edge">
<title>[root] aws_subnet.private_subnets (expand)&#45;&gt;[root] data.aws_availability_zones.singapore (expand)</title>
<path fill="none" stroke="black" d="M707.53,-215.88C694.95,-206.89 679.37,-195.76 665.75,-186.03"/>
<polygon fill="black" stroke="black" points="667.74,-183.15 657.57,-180.19 663.67,-188.85 667.74,-183.15"/>
</g>
<!-- [root] aws_subnet.public_subnets (expand)&#45;&gt;[root] aws_vpc.non_prod (expand) -->
<g id="edge11" class="edge">
<title>[root] aws_subnet.public_subnets (expand)&#45;&gt;[root] aws_vpc.non_prod (expand)</title>
<path fill="none" stroke="black" d="M499.32,-215.97C471.65,-206.19 436.72,-193.84 407.55,-183.52"/>
<polygon fill="black" stroke="black" points="408.49,-180.14 397.9,-180.11 406.16,-186.74 408.49,-180.14"/>
</g>
<!-- [root] aws_subnet.public_subnets (expand)&#45;&gt;[root] data.aws_availability_zones.singapore (expand) -->
<g id="edge12" class="edge">
<title>[root] aws_subnet.public_subnets (expand)&#45;&gt;[root] data.aws_availability_zones.singapore (expand)</title>
<path fill="none" stroke="black" d="M568.76,-215.7C579.59,-206.88 592.92,-196.03 604.66,-186.47"/>
<polygon fill="black" stroke="black" points="606.94,-189.13 612.49,-180.1 602.52,-183.7 606.94,-189.13"/>
</g>
<!-- [root] provider[&quot;registry.terraform.io/hashicorp/aws&quot;] -->
<g id="node11" class="node">
<title>[root] provider[&quot;registry.terraform.io/hashicorp/aws&quot;]</title>
<polygon fill="none" stroke="black" points="633.5,-108 380.96,-90 633.5,-72 886.04,-90 633.5,-108"/>
<text text-anchor="middle" x="633.5" y="-86.3" font-family="Times,serif" font-size="14.00">provider[&quot;registry.terraform.io/hashicorp/aws&quot;]</text>
</g>
<!-- [root] aws_vpc.non_prod (expand)&#45;&gt;[root] provider[&quot;registry.terraform.io/hashicorp/aws&quot;] -->
<g id="edge14" class="edge">
<title>[root] aws_vpc.non_prod (expand)&#45;&gt;[root] provider[&quot;registry.terraform.io/hashicorp/aws&quot;]</title>
<path fill="none" stroke="black" d="M409.04,-146.33C456.11,-134.72 521.69,-118.56 569.81,-106.7"/>
<polygon fill="black" stroke="black" points="570.93,-110.03 579.8,-104.24 569.25,-103.23 570.93,-110.03"/>
</g>
<!-- [root] local.vpc (expand) -->
<g id="node13" class="node">
<title>[root] local.vpc (expand)</title>
<ellipse fill="none" stroke="black" cx="263.5" cy="-90" rx="98.58" ry="18"/>
<text text-anchor="middle" x="263.5" y="-86.3" font-family="Times,serif" font-size="14.00">[root] local.vpc (expand)</text>
</g>
<!-- [root] aws_vpc.non_prod (expand)&#45;&gt;[root] local.vpc (expand) -->
<g id="edge13" class="edge">
<title>[root] aws_vpc.non_prod (expand)&#45;&gt;[root] local.vpc (expand)</title>
<path fill="none" stroke="black" d="M328.24,-143.7C317.25,-134.75 303.68,-123.71 291.82,-114.05"/>
<polygon fill="black" stroke="black" points="293.89,-111.22 283.92,-107.62 289.47,-116.65 293.89,-111.22"/>
</g>
<!-- [root] data.aws_availability_zones.singapore (expand)&#45;&gt;[root] provider[&quot;registry.terraform.io/hashicorp/aws&quot;] -->
<g id="edge15" class="edge">
<title>[root] data.aws_availability_zones.singapore (expand)&#45;&gt;[root] provider[&quot;registry.terraform.io/hashicorp/aws&quot;]</title>
<path fill="none" stroke="black" d="M633.5,-143.7C633.5,-135.98 633.5,-126.71 633.5,-118.11"/>
<polygon fill="black" stroke="black" points="637,-118.1 633.5,-108.1 630,-118.1 637,-118.1"/>
</g>
<!-- [root] var.profile -->
<g id="node12" class="node">
<title>[root] var.profile</title>
<polygon fill="none" stroke="black" points="664,-36 597,-36 597,0 670,0 670,-30 664,-36"/>
<polyline fill="none" stroke="black" points="664,-36 664,-30 "/>
<polyline fill="none" stroke="black" points="670,-30 664,-30 "/>
<text text-anchor="middle" x="633.5" y="-14.3" font-family="Times,serif" font-size="14.00">var.profile</text>
</g>
<!-- [root] provider[&quot;registry.terraform.io/hashicorp/aws&quot;]&#45;&gt;[root] var.profile -->
<g id="edge19" class="edge">
<title>[root] provider[&quot;registry.terraform.io/hashicorp/aws&quot;]&#45;&gt;[root] var.profile</title>
<path fill="none" stroke="black" d="M633.5,-71.7C633.5,-63.98 633.5,-54.71 633.5,-46.11"/>
<polygon fill="black" stroke="black" points="637,-46.1 633.5,-36.1 630,-46.1 637,-46.1"/>
</g>
<!-- [root] provider[&quot;registry.terraform.io/hashicorp/aws&quot;] (close) -->
<g id="node14" class="node">
<title>[root] provider[&quot;registry.terraform.io/hashicorp/aws&quot;] (close)</title>
<ellipse fill="none" stroke="black" cx="447.5" cy="-450" rx="227.46" ry="18"/>
<text text-anchor="middle" x="447.5" y="-446.3" font-family="Times,serif" font-size="14.00">[root] provider[&quot;registry.terraform.io/hashicorp/aws&quot;] (close)</text>
</g>
<!-- [root] provider[&quot;registry.terraform.io/hashicorp/aws&quot;] (close)&#45;&gt;[root] aws_route.public_route (expand) -->
<g id="edge16" class="edge">
<title>[root] provider[&quot;registry.terraform.io/hashicorp/aws&quot;] (close)&#45;&gt;[root] aws_route.public_route (expand)</title>
<path fill="none" stroke="black" d="M417.71,-431.87C373.01,-406.18 288.6,-357.65 239.2,-329.25"/>
<polygon fill="black" stroke="black" points="240.81,-326.14 230.4,-324.19 237.32,-332.21 240.81,-326.14"/>
</g>
<!-- [root] provider[&quot;registry.terraform.io/hashicorp/aws&quot;] (close)&#45;&gt;[root] aws_route_table_association.route_table_assoc_private_subnets (expand) -->
<g id="edge17" class="edge">
<title>[root] provider[&quot;registry.terraform.io/hashicorp/aws&quot;] (close)&#45;&gt;[root] aws_route_table_association.route_table_assoc_private_subnets (expand)</title>
<path fill="none" stroke="black" d="M505.41,-432.59C541.01,-422.5 586.86,-409.5 624.49,-398.84"/>
<polygon fill="black" stroke="black" points="625.71,-402.13 634.37,-396.04 623.8,-395.4 625.71,-402.13"/>
</g>
<!-- [root] provider[&quot;registry.terraform.io/hashicorp/aws&quot;] (close)&#45;&gt;[root] aws_route_table_association.route_table_assoc_public (expand) -->
<g id="edge18" class="edge">
<title>[root] provider[&quot;registry.terraform.io/hashicorp/aws&quot;] (close)&#45;&gt;[root] aws_route_table_association.route_table_assoc_public (expand)</title>
<path fill="none" stroke="black" d="M447.5,-431.87C447.5,-407.67 447.5,-363.21 447.5,-334.39"/>
<polygon fill="black" stroke="black" points="451,-334.19 447.5,-324.19 444,-334.19 451,-334.19"/>
</g>
<!-- [root] root -->
<g id="node15" class="node">
<title>[root] root</title>
<ellipse fill="none" stroke="black" cx="447.5" cy="-522" rx="47.39" ry="18"/>
<text text-anchor="middle" x="447.5" y="-518.3" font-family="Times,serif" font-size="14.00">[root] root</text>
</g>
<!-- [root] root&#45;&gt;[root] provider[&quot;registry.terraform.io/hashicorp/aws&quot;] (close) -->
<g id="edge20" class="edge">
<title>[root] root&#45;&gt;[root] provider[&quot;registry.terraform.io/hashicorp/aws&quot;] (close)</title>
<path fill="none" stroke="black" d="M447.5,-503.7C447.5,-495.98 447.5,-486.71 447.5,-478.11"/>
<polygon fill="black" stroke="black" points="451,-478.1 447.5,-468.1 444,-478.1 451,-478.1"/>
</g>
</g>
</svg>
